<svg xmlns="http://www.w3.org/2000/svg" xmlns:xlink="http://www.w3.org/1999/xlink" width="142.608" height="36" viewBox="0 0 142.608 36">
  <defs>
    <clipPath id="clip-path">
      <path id="Pfad_12" data-name="Pfad 12" d="M0-53.972H142.608v-36H0Z" transform="translate(0 89.972)" fill="none"/>
    </clipPath>
    <clipPath id="clip-path-2">
      <path id="Pfad_14" data-name="Pfad 14" d="M2.268-89.972A2.269,2.269,0,0,0,0-87.7H0V-56.24a2.268,2.268,0,0,0,2.268,2.268H33.731A2.269,2.269,0,0,0,36-56.24h0V-87.7a2.269,2.269,0,0,0-2.269-2.269H2.268ZM18.207-67.355a17.657,17.657,0,0,0,8.1-1.779h0A12.019,12.019,0,0,0,31.564-74.1h0l2.352,1.222a14.776,14.776,0,0,1-3.289,5.6h0A16.956,16.956,0,0,1,25.078-63.2h0a16.35,16.35,0,0,1-6.563,1.518h-.692A16.379,16.379,0,0,1,11.137-63.1h0A17.027,17.027,0,0,1,5.465-67.18h0a14.709,14.709,0,0,1-3.381-5.7h0L4.436-74.1A11.654,11.654,0,0,0,9.508-69.21h0a17.35,17.35,0,0,0,7.884,1.855h.815Z" transform="translate(0 89.972)" fill="none"/>
    </clipPath>
    <linearGradient id="linear-gradient" y1="0.325" x2="0.292" y2="0.325" gradientUnits="objectBoundingBox">
      <stop offset="0" stop-color="#fd317a"/>
      <stop offset="0.1" stop-color="#f8317a"/>
      <stop offset="0.2" stop-color="#f33179"/>
      <stop offset="0.3" stop-color="#ed3179"/>
      <stop offset="0.4" stop-color="#e83178"/>
      <stop offset="0.5" stop-color="#e23177"/>
      <stop offset="0.6" stop-color="#dc3177"/>
      <stop offset="0.7" stop-color="#d73176"/>
      <stop offset="0.8" stop-color="#d13076"/>
      <stop offset="0.9" stop-color="#cb3075"/>
      <stop offset="1" stop-color="#c63075"/>
    </linearGradient>
  </defs>
  <g id="Gruppe_20" data-name="Gruppe 20" transform="translate(0 89.972)" style="mix-blend-mode: normal;isolation: isolate">
    <g id="Gruppe_17" data-name="Gruppe 17" transform="translate(0 -89.972)" clip-path="url(#clip-path)">
      <g id="Gruppe_16" data-name="Gruppe 16" transform="translate(44.698 0)">
        <path id="Pfad_11" data-name="Pfad 11" d="M-24.127-17.077v-3.107H-39.946v4.251h9.014L-40.22-3.652V-.441h16.385V-4.692h-9.653Zm3.594-3.107V-.441h5.273V-14.4a3.417,3.417,0,0,1,3.248-1.861,2.939,2.939,0,0,1,2.3.766,3.714,3.714,0,0,1,.675,2.482V-.441h5.273L-3.782-14A3.291,3.291,0,0,1-.5-16.26a2.911,2.911,0,0,1,2.317.775,3.759,3.759,0,0,1,.657,2.454V-.441H7.767V-13.049q0-3.759-1.569-5.629a5.89,5.89,0,0,0-4.781-1.87,6.778,6.778,0,0,0-5.93,3.011q-1.424-3.011-5.237-3.011a6.938,6.938,0,0,0-5.675,2.572l-.164-2.207Zm36.055,0H9.848l6.915,19.8-.621,1.624a3,3,0,0,1-1.158,1.514,4.344,4.344,0,0,1-2.235.456l-.8-.018v4a8.306,8.306,0,0,0,2.336.347A6.018,6.018,0,0,0,20.12,3.665l.438-1.04L28.5-20.183H22.839L19.19-7.9Zm20.618-8.284H30.849V-.441h5.291ZM54.058-1.016A7.909,7.909,0,0,0,57.27-3.634l-2.591-2.9a5.693,5.693,0,0,1-4.762,2.207A4.659,4.659,0,0,1,46.659-5.5a4.9,4.9,0,0,1-1.542-3.1H57.689V-10.75q0-4.689-2.326-7.244a8.194,8.194,0,0,0-6.377-2.554,9.14,9.14,0,0,0-4.808,1.268,8.438,8.438,0,0,0-3.257,3.613,11.929,11.929,0,0,0-1.15,5.319v.511A9.468,9.468,0,0,0,42.5-2.74,9.69,9.69,0,0,0,49.57-.076a10.539,10.539,0,0,0,4.489-.939m-2.5-14.319a3.925,3.925,0,0,1,.949,2.721v.422H45.172a5.5,5.5,0,0,1,1.25-3.042A3.293,3.293,0,0,1,48.967-16.3a3.4,3.4,0,0,1,2.591.962" transform="translate(40.22 28.467)" fill="#0e2545"/>
      </g>
    </g>
    <g id="Gruppe_19" data-name="Gruppe 19" transform="translate(0 -89.972)" clip-path="url(#clip-path-2)">
      <g id="Gruppe_18" data-name="Gruppe 18" transform="translate(-7.607 1.687) rotate(-12.5)">
        <path id="Pfad_13" data-name="Pfad 13" d="M7.792,0,147.019,30.866l-7.792,35.147L0,35.147Z" transform="translate(0 0)" fill="url(#linear-gradient)"/>
      </g>
    </g>
  </g>
</svg>
