<svg xmlns="http://www.w3.org/2000/svg" xmlns:xlink="http://www.w3.org/1999/xlink" width="207.045" height="175.797" viewBox="0 0 207.045 175.797">
  <defs>
    <clipPath id="clip-path">
      <path id="Pfad_32" data-name="Pfad 32" d="M55.7,7.844a11.385,11.385,0,0,0-3.789.9,14.5,14.5,0,0,0-3.483,2.095,14.911,14.911,0,0,0-2.811,2.988,12.333,12.333,0,0,0-1.768,3.586h0L3.2,154.877a11.636,11.636,0,0,0-.481,4.232,8.549,8.549,0,0,0,1.058,3.556,6.986,6.986,0,0,0,2.4,2.509,7.539,7.539,0,0,0,3.553,1.081h0l150.384,8.83a12.812,12.812,0,0,0,4.878-.685,14.7,14.7,0,0,0,4.369-2.4,15.087,15.087,0,0,0,3.37-3.73,13.708,13.708,0,0,0,1.891-4.676h0L205.053,10.055a8.318,8.318,0,0,0-.107-3.886A7.147,7.147,0,0,0,203.175,3.1a8.088,8.088,0,0,0-3.122-1.96,10.8,10.8,0,0,0-4.166-.558h0Zm39.8,26.583,40.01-1.308-12.26,29.86-30.391.406ZM71,108.866l19.28-35.542,30.521-.206,1.847,36.642L89.711,136.034Z" transform="translate(0 0)" fill="none"/>
    </clipPath>
    <linearGradient id="linear-gradient" y1="0.5" x2="1" y2="0.5" gradientUnits="objectBoundingBox">
      <stop offset="0" stop-color="#7f5199"/>
      <stop offset="0.1" stop-color="#79519a"/>
      <stop offset="0.2" stop-color="#73519c"/>
      <stop offset="0.3" stop-color="#6c519d"/>
      <stop offset="0.4" stop-color="#65519e"/>
      <stop offset="0.5" stop-color="#5f51a0"/>
      <stop offset="0.6" stop-color="#5851a1"/>
      <stop offset="0.7" stop-color="#5251a3"/>
      <stop offset="0.8" stop-color="#4b51a4"/>
      <stop offset="0.9" stop-color="#4451a5"/>
      <stop offset="1" stop-color="#3d51a7"/>
    </linearGradient>
  </defs>
  <g id="benefits" style="mix-blend-mode: normal;isolation: isolate">
    <g id="Gruppe_43" data-name="Gruppe 43" transform="translate(0 0)" clip-path="url(#clip-path)">
      <g id="Gruppe_42" data-name="Gruppe 42" transform="translate(-3.693 -32.247)">
        <path id="Pfad_31" data-name="Pfad 31" d="M50.226,40.564l160.512-8.319L175.9,208.043,3.693,197.931Z" fill="url(#linear-gradient)"/>
      </g>
    </g>
  </g>
</svg>
