<svg xmlns="http://www.w3.org/2000/svg" xmlns:xlink="http://www.w3.org/1999/xlink" width="237.95" height="48" viewBox="0 0 237.95 48">
  <defs>
    <clipPath id="clip-path">
      <path id="Pfad_20" data-name="Pfad 20" d="M0,0H237.95V-48H0Z" fill="none"/>
    </clipPath>
    <clipPath id="clip-path-2">
      <path id="Pfad_22" data-name="Pfad 22" d="M3.024-48A3.024,3.024,0,0,0,0-44.975H0V-3.024A3.024,3.024,0,0,0,3.024,0H44.975A3.025,3.025,0,0,0,48-3.024h0V-44.975A3.025,3.025,0,0,0,44.975-48H3.024ZM18.08-38.8H29.92L28.44-29.92H19.56ZM16.6-16.6,19.56-26.959h8.88L31.4-16.6,24-9.2Z" fill="none"/>
    </clipPath>
    <linearGradient id="linear-gradient" y1="0.291" x2="0.236" y2="0.291" gradientUnits="objectBoundingBox">
      <stop offset="0" stop-color="#7f5199"/>
      <stop offset="0.1" stop-color="#79519a"/>
      <stop offset="0.2" stop-color="#73519c"/>
      <stop offset="0.3" stop-color="#6c519d"/>
      <stop offset="0.4" stop-color="#65519e"/>
      <stop offset="0.5" stop-color="#5f51a0"/>
      <stop offset="0.6" stop-color="#5851a1"/>
      <stop offset="0.7" stop-color="#5251a3"/>
      <stop offset="0.8" stop-color="#4b51a4"/>
      <stop offset="0.9" stop-color="#4451a5"/>
      <stop offset="1" stop-color="#3d51a7"/>
    </linearGradient>
  </defs>
  <g id="benefits_logo" data-name="benefits logo" transform="translate(0 48)" style="mix-blend-mode: normal;isolation: isolate">
    <g id="Gruppe_27" data-name="Gruppe 27" clip-path="url(#clip-path)">
      <g id="Gruppe_26" data-name="Gruppe 26" transform="translate(83.432 -18.605)">
        <path id="Pfad_19" data-name="Pfad 19" d="M0,0Q0-6.43-2.74-9.974A9.029,9.029,0,0,0-10.3-13.518a8.016,8.016,0,0,0-6.406,2.849v-13.42h-7.039V13.323h6.333l.317-2.8a8.227,8.227,0,0,0,6.844,3.288A8.954,8.954,0,0,0-2.7,10.266Q0,6.723,0,.389ZM-7.551,4.774a4.346,4.346,0,0,1-4.481,3.362,4.706,4.706,0,0,1-4.677-2.777v-10.4a4.643,4.643,0,0,1,4.628-2.752A4.283,4.283,0,0,1-8.306-5.955Q-7.04-4.116-7.039-.122a17.339,17.339,0,0,1-.512,4.9m30.007,7.782a10.558,10.558,0,0,0,4.287-3.5L23.285,5.188a7.6,7.6,0,0,1-6.357,2.948A6.223,6.223,0,0,1,12.58,6.576a6.54,6.54,0,0,1-2.058-4.141H27.3V-.439q0-6.26-3.1-9.67a10.94,10.94,0,0,0-8.513-3.41,12.206,12.206,0,0,0-6.418,1.693A11.269,11.269,0,0,0,4.92-7,15.927,15.927,0,0,0,3.386.1V.779a12.639,12.639,0,0,0,3.641,9.474,12.934,12.934,0,0,0,9.438,3.556,14.067,14.067,0,0,0,5.992-1.254M19.12-6.558a5.245,5.245,0,0,1,1.267,3.633v.563H10.6a7.345,7.345,0,0,1,1.668-4.062,4.4,4.4,0,0,1,3.4-1.419A4.539,4.539,0,0,1,19.12-6.558m12.032-6.472V13.323h7.039V-5.261a4.842,4.842,0,0,1,4.457-2.533,4.365,4.365,0,0,1,3.239,1.01,4.569,4.569,0,0,1,.974,3.252V13.323H53.9V-3.7q-.049-4.9-2.095-7.356t-6.236-2.46A9.2,9.2,0,0,0,38-9.986l-.219-3.045Zm46.2,25.587a10.565,10.565,0,0,0,4.287-3.5L78.184,5.188a7.6,7.6,0,0,1-6.357,2.948A6.222,6.222,0,0,1,67.48,6.576a6.538,6.538,0,0,1-2.058-4.141H82.2V-.439q0-6.26-3.105-9.67a10.938,10.938,0,0,0-8.513-3.41,12.2,12.2,0,0,0-6.418,1.693A11.265,11.265,0,0,0,59.82-7,15.92,15.92,0,0,0,58.285.1V.779a12.639,12.639,0,0,0,3.641,9.474,12.934,12.934,0,0,0,9.438,3.556,14.067,14.067,0,0,0,5.992-1.254M74.019-6.558a5.24,5.24,0,0,1,1.267,3.633v.563H65.495a7.349,7.349,0,0,1,1.669-4.062,4.4,4.4,0,0,1,3.4-1.419,4.539,4.539,0,0,1,3.459,1.285M94.966,13.323V-7.867h5.188v-5.164H94.966V-14.1q0-4.36,4.92-4.36a18.234,18.234,0,0,1,2.825.207,31.291,31.291,0,0,1,3.7.913l1.023-5.821A28.151,28.151,0,0,0,99.447-24.6q-5.48,0-8.488,2.692T87.9-14.249v1.218H83.981v5.164H87.9v21.19Zm15.759-26.354h-7.064V13.323h7.064Zm7.21-6.479v6.479h-3.848v5.164h3.848v14.2q.146,7.478,7.551,7.478a14.5,14.5,0,0,0,4.262-.633V7.843a11.225,11.225,0,0,1-2.07.17,2.812,2.812,0,0,1-2.144-.633,3.14,3.14,0,0,1-.56-2.095V-7.867h4.506v-5.164h-4.506V-19.51Zm28.7,27.56a5.1,5.1,0,0,1-3.057.767,5.506,5.506,0,0,1-3.459-1,3.673,3.673,0,0,1-1.388-2.874h-6.674a7.527,7.527,0,0,0,1.461,4.445,9.864,9.864,0,0,0,4.031,3.239,13.936,13.936,0,0,0,5.882,1.181,13.344,13.344,0,0,0,7.989-2.228,6.875,6.875,0,0,0,3.093-5.834q0-5.042-5.578-7.088a30.581,30.581,0,0,0-4.433-1.181,11.381,11.381,0,0,1-3.739-1.243,2.168,2.168,0,0,1-1.108-1.888,2.537,2.537,0,0,1,.974-2.046,4.214,4.214,0,0,1,2.752-.8,4.124,4.124,0,0,1,3.045.986,3.406,3.406,0,0,1,.974,2.5h7.039a7.448,7.448,0,0,0-3.008-6.138,12.64,12.64,0,0,0-8.026-2.362,11.739,11.739,0,0,0-7.611,2.351,7.24,7.24,0,0,0-2.911,5.857q0,6.016,9.4,7.989a14.522,14.522,0,0,1,4.1,1.327,2.268,2.268,0,0,1,1.279,2.034,2.388,2.388,0,0,1-1.035,2.01" fill="#0e2545"/>
      </g>
    </g>
    <g id="Gruppe_29" data-name="Gruppe 29" clip-path="url(#clip-path-2)">
      <g id="Gruppe_28" data-name="Gruppe 28" transform="translate(-3.947 -17.804) rotate(-12.5)">
        <path id="Pfad_21" data-name="Pfad 21" d="M10.389-28.626,242.7,22.876,232.309,69.738,0,18.236Z" fill="url(#linear-gradient)"/>
      </g>
    </g>
  </g>
</svg>
