<svg xmlns="http://www.w3.org/2000/svg" width="22" height="22.004" viewBox="0 0 22 22.004">
  <path id="globe" d="M14.928,14.743C14.285,10.782,12.768,8,11,8s-3.283,2.782-3.926,6.743ZM6.743,19a27.807,27.807,0,0,0,.146,2.839H15.11A27.807,27.807,0,0,0,15.257,19a27.807,27.807,0,0,0-.146-2.839H6.89A27.807,27.807,0,0,0,6.743,19Zm14.4-4.259a11.025,11.025,0,0,0-7.009-6.282,14.973,14.973,0,0,1,2.218,6.282ZM7.861,8.461A11.018,11.018,0,0,0,.856,14.743H5.648A14.912,14.912,0,0,1,7.861,8.461Zm13.762,7.7H16.534c.093.932.146,1.885.146,2.839s-.053,1.908-.146,2.839h5.084A10.907,10.907,0,0,0,22,19,11.1,11.1,0,0,0,21.623,16.163ZM5.324,19c0-.954.053-1.908.146-2.839H.382a10.756,10.756,0,0,0,0,5.679H5.466C5.377,20.91,5.324,19.956,5.324,19Zm1.752,4.259C7.719,27.223,9.237,30,11,30s3.283-2.782,3.926-6.743Zm7.067,6.282a11.036,11.036,0,0,0,7.009-6.282H16.361A14.973,14.973,0,0,1,14.143,29.543ZM.856,23.261a11.025,11.025,0,0,0,7.009,6.282,14.973,14.973,0,0,1-2.218-6.282H.856Z" transform="translate(0 -8)" fill="#09233b"/>
</svg>
