<svg xmlns="http://www.w3.org/2000/svg" xmlns:xlink="http://www.w3.org/1999/xlink" width="120.541" height="101.334" viewBox="0 0 120.541 101.334">
  <defs>
    <clipPath id="clip-path">
      <path id="Pfad_34" data-name="Pfad 34" d="M30.9,2.82a6.714,6.714,0,0,0-2.327.516,8.406,8.406,0,0,0-2.122,1.275,8.7,8.7,0,0,0-1.691,1.846A7.394,7.394,0,0,0,23.722,8.69h0L1.671,91.7a6.444,6.444,0,0,0-.19,2.458A4.876,4.876,0,0,0,2.2,96.2a4.227,4.227,0,0,0,1.507,1.415,4.74,4.74,0,0,0,2.16.575h0l86.64,2.925a7.2,7.2,0,0,0,2.694-.442,8.477,8.477,0,0,0,2.42-1.374,8.756,8.756,0,0,0,1.88-2.094,7.852,7.852,0,0,0,1.076-2.6h0L119.264,6.053a5.328,5.328,0,0,0-.005-2.346,4.393,4.393,0,0,0-.964-1.881A4.585,4.585,0,0,0,116.543.6a5.83,5.83,0,0,0-2.372-.4h0ZM49.867,44.438a1.19,1.19,0,0,1-.173-.331,1.3,1.3,0,0,1-.067-.387,1.512,1.512,0,0,1,.052-.425,1.861,1.861,0,0,1,.185-.444h0a9.4,9.4,0,0,1,1.127-2.106,10.387,10.387,0,0,1,1.618-1.792,10.707,10.707,0,0,1,2-1.388,10.192,10.192,0,0,1,2.264-.891h0a2.841,2.841,0,0,0,.6-.224,3.012,3.012,0,0,0,.544-.353,3.073,3.073,0,0,0,.46-.464,3.01,3.01,0,0,0,.353-.555h0a4.638,4.638,0,0,1-.353-.8,5.215,5.215,0,0,1-.215-.914,5.385,5.385,0,0,1-.049-.988,5.32,5.32,0,0,1,.145-1.026h0l.952-3.923a7.52,7.52,0,0,1,1.013-2.327,8.212,8.212,0,0,1,1.692-1.878,8.053,8.053,0,0,1,2.169-1.268,7.134,7.134,0,0,1,2.445-.491h0a5.393,5.393,0,0,1,2.238.406,4.039,4.039,0,0,1,1.593,1.206,4.15,4.15,0,0,1,.817,1.849,5.71,5.71,0,0,1-.094,2.33h0L70.25,31.2a6.112,6.112,0,0,1-.35,1.037,7.9,7.9,0,0,1-.529,1,9.264,9.264,0,0,1-1.41,1.748h0a1.845,1.845,0,0,0,.09.555,1.536,1.536,0,0,0,.243.46,1.5,1.5,0,0,0,.382.348,1.744,1.744,0,0,0,.507.216h0a6.2,6.2,0,0,1,1.887.866,5.577,5.577,0,0,1,1.4,1.38,5.883,5.883,0,0,1,.851,1.8,7.019,7.019,0,0,1,.249,2.132h0a1.462,1.462,0,0,1-.026.451,1.769,1.769,0,0,1-.154.432,2.15,2.15,0,0,1-.26.395,2.409,2.409,0,0,1-.342.338h0a2.572,2.572,0,0,1-.426.383,2.3,2.3,0,0,1-.453.25,2.325,2.325,0,0,1-.464.137,2.561,2.561,0,0,1-.461.042h0l-19.935.053a2.1,2.1,0,0,1-.426-.039,1.23,1.23,0,0,1-.366-.133.768.768,0,0,1-.265-.245.8.8,0,0,1-.122-.375M27.45,69.227a10.3,10.3,0,0,1,1.308-2.988,11.511,11.511,0,0,1,2.12-2.462,11.106,11.106,0,0,1,2.667-1.738,9.12,9.12,0,0,1,2.949-.811h0l6.288-3.991,9.958-6.006,6.73-4.019h.2l.042-.031c.026-.019.063-.044.107-.069a.947.947,0,0,1,.144-.069.456.456,0,0,1,.154-.032h.8s.01.013.027.031a.677.677,0,0,0,.074.069.522.522,0,0,0,.111.069.34.34,0,0,0,.139.031h0l.153.2,4.863,4.042,7.3,6.157,4.649,3.957a6.793,6.793,0,0,1,2.713.883,6.125,6.125,0,0,1,1.965,1.84,6.53,6.53,0,0,1,1.026,2.586,8.066,8.066,0,0,1-.107,3.117h0a10.009,10.009,0,0,1-1.39,3.26,11.47,11.47,0,0,1-2.4,2.654,11.092,11.092,0,0,1-3.062,1.767,9.138,9.138,0,0,1-3.38.605h0a7.1,7.1,0,0,1-3.064-.726A6.152,6.152,0,0,1,68.331,75.7a6.482,6.482,0,0,1-1.149-2.689,7.951,7.951,0,0,1,.1-3.244h0a9.817,9.817,0,0,1,.745-2.088A10.464,10.464,0,0,1,69.2,65.814a11.065,11.065,0,0,1,3.351-2.844h0L70.53,61.092,63.249,54.9l-2.178-1.835L60.3,56.313l-1.263,5.3a6.626,6.626,0,0,1,2.121,1.154,6.087,6.087,0,0,1,1.5,1.81,6.457,6.457,0,0,1,.733,2.353,8.084,8.084,0,0,1-.185,2.78h0a10.1,10.1,0,0,1-1.4,3.215,11.508,11.508,0,0,1-2.371,2.618,10.966,10.966,0,0,1-3.006,1.743,8.858,8.858,0,0,1-3.3.6h0a6.775,6.775,0,0,1-2.972-.715,5.884,5.884,0,0,1-2.122-1.826,6.34,6.34,0,0,1-1.081-2.652,7.956,7.956,0,0,1,.148-3.2h0a10.3,10.3,0,0,1,1.133-2.768,11.478,11.478,0,0,1,1.835-2.351,11.221,11.221,0,0,1,2.33-1.77,9.421,9.421,0,0,1,2.621-1.022h0l1.271-5.289.778-3.239-3.028,1.811-10,6.018-2.813,1.8A5.478,5.478,0,0,1,42.4,63.945a5.745,5.745,0,0,1,.731,1.583,6.725,6.725,0,0,1,.26,1.851,8.466,8.466,0,0,1-.256,2.061h0a10.188,10.188,0,0,1-1.408,3.172,11.547,11.547,0,0,1-2.346,2.583,10.85,10.85,0,0,1-2.952,1.72,8.594,8.594,0,0,1-3.221.59h0a6.468,6.468,0,0,1-2.885-.7A5.633,5.633,0,0,1,28.277,75a6.209,6.209,0,0,1-1.016-2.616,7.965,7.965,0,0,1,.188-3.157" transform="translate(0)" fill="none"/>
    </clipPath>
    <linearGradient id="linear-gradient" y1="0.5" x2="1" y2="0.5" gradientUnits="objectBoundingBox">
      <stop offset="0" stop-color="#5ac4db"/>
      <stop offset="0.1" stop-color="#52b8d5"/>
      <stop offset="0.2" stop-color="#4aabce"/>
      <stop offset="0.3" stop-color="#419ec7"/>
      <stop offset="0.4" stop-color="#3a91c0"/>
      <stop offset="0.5" stop-color="#3285b9"/>
      <stop offset="0.6" stop-color="#2b79b2"/>
      <stop offset="0.7" stop-color="#246eac"/>
      <stop offset="0.8" stop-color="#1e63a5"/>
      <stop offset="0.9" stop-color="#18589f"/>
      <stop offset="1" stop-color="#134d99"/>
    </linearGradient>
  </defs>
  <g id="networks" style="mix-blend-mode: normal;isolation: isolate">
    <g id="Gruppe_46" data-name="Gruppe 46" transform="translate(0)" clip-path="url(#clip-path)">
      <g id="Gruppe_45" data-name="Gruppe 45" transform="translate(-1.297 -19.787)">
        <path id="Pfad_33" data-name="Pfad 33" d="M26.532,22.784l95.306-3L100.456,121.121,1.3,117.774Z" fill="url(#linear-gradient)"/>
      </g>
    </g>
  </g>
</svg>
