<svg xmlns="http://www.w3.org/2000/svg" xmlns:xlink="http://www.w3.org/1999/xlink" width="255" height="47.921" viewBox="0 0 255 47.921">
  <defs>
    <clipPath id="clip-path">
      <path id="Pfad_46" data-name="Pfad 46" d="M3.019-47.92A3.019,3.019,0,0,0,0-44.9H0V-3.019A3.019,3.019,0,0,0,3.019,0H44.9a3.02,3.02,0,0,0,3.02-3.019h0V-44.9A3.02,3.02,0,0,0,44.9-47.92H3.019Zm15.325,21.6a.766.766,0,0,1-.2-.788h0a3.684,3.684,0,0,1,2.76-3.055h0a1.068,1.068,0,0,0,.788-.788h0A3.108,3.108,0,0,1,21-32.829h0V-34.8a2.9,2.9,0,0,1,2.956-2.957h0A2.9,2.9,0,0,1,26.917-34.8h0v1.97a3.108,3.108,0,0,1-.69,1.872h0a1.069,1.069,0,0,0,.788.788h0a3.937,3.937,0,0,1,2.858,3.055h0a.765.765,0,0,1-.2.788h0a.9.9,0,0,1-.788.394H19.033a.659.659,0,0,1-.689-.394M10.165-14.107a3.959,3.959,0,0,1,3.547-3.941h0l2.66-1.971,4.237-2.956,2.858-1.971h.1a.344.344,0,0,1,.2-.1h.394a.346.346,0,0,0,.2.1h0l.1.1,2.858,1.971,4.237,2.957,2.66,1.872a3.959,3.959,0,0,1,3.547,3.941h0a3.953,3.953,0,0,1-3.941,3.942h0a3.953,3.953,0,0,1-3.941-3.942h0a3.808,3.808,0,0,1,1.774-3.252h0l-1.182-.887L26.227-21.2l-1.281-.887v4.138A4.019,4.019,0,0,1,27.9-14.107h0a3.953,3.953,0,0,1-3.941,3.942h0a3.953,3.953,0,0,1-3.941-3.942h0a3.932,3.932,0,0,1,2.956-3.843h0v-4.138l-1.281.887-4.237,2.956-1.182.887a3.808,3.808,0,0,1,1.774,3.252h0a3.953,3.953,0,0,1-3.941,3.942h0a3.953,3.953,0,0,1-3.942-3.942" fill="none"/>
    </clipPath>
    <linearGradient id="linear-gradient" y1="0.28" x2="0.22" y2="0.28" gradientUnits="objectBoundingBox">
      <stop offset="0" stop-color="#5ac4db"/>
      <stop offset="0.1" stop-color="#52b8d5"/>
      <stop offset="0.2" stop-color="#4aabce"/>
      <stop offset="0.3" stop-color="#419ec7"/>
      <stop offset="0.4" stop-color="#3a91c0"/>
      <stop offset="0.5" stop-color="#3285b9"/>
      <stop offset="0.6" stop-color="#2b79b2"/>
      <stop offset="0.7" stop-color="#246eac"/>
      <stop offset="0.8" stop-color="#1e63a5"/>
      <stop offset="0.9" stop-color="#18589f"/>
      <stop offset="1" stop-color="#134d99"/>
    </linearGradient>
    <clipPath id="clip-path-2">
      <path id="Pfad_48" data-name="Pfad 48" d="M0,0H255V-47.921H0Z" fill="none"/>
    </clipPath>
  </defs>
  <g id="networks_logo" data-name="networks logo" transform="translate(0 47.921)" style="mix-blend-mode: normal;isolation: isolate">
    <g id="Gruppe_65" data-name="Gruppe 65" clip-path="url(#clip-path)">
      <g id="Gruppe_64" data-name="Gruppe 64" transform="translate(-3.941 -17.775) rotate(-12.5)">
        <path id="Pfad_45" data-name="Pfad 45" d="M10.372-28.578,259.327,26.614,248.956,73.4,0,18.206Z" fill="url(#linear-gradient)"/>
      </g>
    </g>
    <g id="Gruppe_67" data-name="Gruppe 67" clip-path="url(#clip-path-2)">
      <g id="Gruppe_66" data-name="Gruppe 66" transform="translate(59.586 -31.839)">
        <path id="Pfad_47" data-name="Pfad 47" d="M0,0V26.31H7.027V7.757a4.834,4.834,0,0,1,4.45-2.529,4.358,4.358,0,0,1,3.234,1.009,4.561,4.561,0,0,1,.973,3.246V26.31h7.027v-17Q22.663,4.426,20.62,1.97T14.4-.486A9.185,9.185,0,0,0,6.833,3.04L6.614,0ZM45.132,25.545a10.541,10.541,0,0,0,4.28-3.49l-3.453-3.866a7.585,7.585,0,0,1-6.346,2.943,6.212,6.212,0,0,1-4.341-1.556,6.527,6.527,0,0,1-2.054-4.134H49.971V12.571q0-6.249-3.1-9.653a10.919,10.919,0,0,0-8.5-3.4A12.186,12.186,0,0,0,31.965,1.2a11.25,11.25,0,0,0-4.34,4.814,15.9,15.9,0,0,0-1.532,7.089v.681a12.62,12.62,0,0,0,3.635,9.459A12.915,12.915,0,0,0,39.15,26.8a14.044,14.044,0,0,0,5.982-1.252M41.8,6.462a5.237,5.237,0,0,1,1.264,3.627v.562H33.29A7.333,7.333,0,0,1,34.956,6.6a4.391,4.391,0,0,1,3.392-1.417A4.532,4.532,0,0,1,41.8,6.462M54.349-6.468V0H50.507V5.155h3.842V19.331Q54.5,26.8,61.887,26.8a14.472,14.472,0,0,0,4.255-.632V20.839a11.207,11.207,0,0,1-2.067.17,2.808,2.808,0,0,1-2.14-.632,3.135,3.135,0,0,1-.559-2.091V5.155h4.5V0h-4.5V-6.468ZM86.885,0H81.8L76.989,16.73,73.56,0H66.776l6.712,26.31h5.86l4.985-16.56,4.985,16.56H95.2L101.913,0H95.129L91.676,16.754ZM103.3,13.228q0,6.273,3.392,9.921a13.1,13.1,0,0,0,18.152-.012q3.38-3.659,3.38-9.714l-.048-1.8a13.079,13.079,0,0,0-3.757-8.851,11.981,11.981,0,0,0-8.693-3.259,12.662,12.662,0,0,0-6.577,1.678,11.037,11.037,0,0,0-4.341,4.742,15.6,15.6,0,0,0-1.507,6.978Zm8.438-6.039a4.587,4.587,0,0,1,3.988-2.01A4.665,4.665,0,0,1,119.763,7.2a9.741,9.741,0,0,1,1.434,5.7q0,4.311-1.434,6.271a5.066,5.066,0,0,1-8.024-.025,9.831,9.831,0,0,1-1.41-5.735q0-4.213,1.41-6.222m34.7-7.359a7.375,7.375,0,0,0-2.189-.316,6.512,6.512,0,0,0-5.86,3.623L138.2,0h-6.639V26.31h7.027V9.095q1.24-2.7,5.228-2.7a19.139,19.139,0,0,1,2.529.194Zm18.6,26.481h8.073L162.78,10.967,172.288,0H163.85l-6.736,7.9-1.361,1.751V-11.04h-7.027V26.31h7.027V18.286l2.529-2.529Zm22.506-5.264a5.089,5.089,0,0,1-3.052.766,5.5,5.5,0,0,1-3.453-1,3.666,3.666,0,0,1-1.386-2.869h-6.663a7.516,7.516,0,0,0,1.459,4.438,9.848,9.848,0,0,0,4.024,3.234A13.911,13.911,0,0,0,184.35,26.8a13.322,13.322,0,0,0,7.976-2.225,6.864,6.864,0,0,0,3.088-5.824q0-5.033-5.569-7.076a30.53,30.53,0,0,0-4.426-1.179,11.359,11.359,0,0,1-3.733-1.24,2.164,2.164,0,0,1-1.106-1.884,2.533,2.533,0,0,1,.973-2.043,4.207,4.207,0,0,1,2.748-.8,4.117,4.117,0,0,1,3.04.985A3.4,3.4,0,0,1,188.314,8h7.027a7.435,7.435,0,0,0-3-6.128,12.62,12.62,0,0,0-8.012-2.358,11.722,11.722,0,0,0-7.6,2.347,7.229,7.229,0,0,0-2.905,5.848q0,6.006,9.386,7.976a14.5,14.5,0,0,1,4.1,1.325,2.265,2.265,0,0,1,1.277,2.03,2.384,2.384,0,0,1-1.033,2.006" fill="#0e2545"/>
      </g>
    </g>
  </g>
</svg>
