<svg xmlns="http://www.w3.org/2000/svg" width="18.045" height="15" viewBox="0 0 18.045 15">
  <path id="store" d="M17.691,3.475,15.79.439A.938.938,0,0,0,15,0H3.16a.938.938,0,0,0-.794.439L.465,3.475a2.614,2.614,0,0,0,1.723,4,3.045,3.045,0,0,0,.4.026,2.893,2.893,0,0,0,2.162-.97,2.9,2.9,0,0,0,4.324,0,2.9,2.9,0,0,0,4.324,0,2.9,2.9,0,0,0,2.162.97,3.012,3.012,0,0,0,.4-.026,2.611,2.611,0,0,0,1.729-4ZM15.567,8.438a3.717,3.717,0,0,1-.864-.111V11.25H3.453V8.326a3.881,3.881,0,0,1-.864.111A3.953,3.953,0,0,1,2.061,8.4a3.684,3.684,0,0,1-.48-.105v5.766A.936.936,0,0,0,2.519,15H15.644a.936.936,0,0,0,.938-.937V8.3a2.991,2.991,0,0,1-.48.105,4.074,4.074,0,0,1-.533.035Z" transform="translate(-0.056)" fill="#e98623"/>
</svg>
