<svg xmlns="http://www.w3.org/2000/svg" xmlns:xlink="http://www.w3.org/1999/xlink" width="196" height="47.802" viewBox="0 0 196 47.802">
  <defs>
    <clipPath id="clip-path">
      <path id="Pfad_16" data-name="Pfad 16" d="M0,0H196V-47.8H0Z" fill="none"/>
    </clipPath>
    <clipPath id="clip-path-2">
      <path id="Pfad_18" data-name="Pfad 18" d="M3.012-47.8A3.012,3.012,0,0,0,0-44.79H0V-3.012A3.012,3.012,0,0,0,3.012,0H44.79A3.012,3.012,0,0,0,47.8-3.012h0V-44.79A3.012,3.012,0,0,0,44.79-47.8H3.012Zm8.725,10.37a1.5,1.5,0,0,1,1.483-1.053H34.551a1.941,1.941,0,0,1,1.48,1.053h0L38.7-27.968H32.814s0,.007,0,.012h5.894l0-.012h.04a2.672,2.672,0,0,1-2.98,2.646H35.75A2.838,2.838,0,0,1,32.8-27.841h0a2.675,2.675,0,0,1-2.967,2.519h-.013a2.838,2.838,0,0,1-2.952-2.519h0A2.674,2.674,0,0,1,23.9-25.322h-.013a2.838,2.838,0,0,1-2.952-2.519h0a2.674,2.674,0,0,1-2.968,2.519h-.013a2.837,2.837,0,0,1-2.949-2.519h0a2.675,2.675,0,0,1-2.968,2.519h0A2.829,2.829,0,0,1,9.06-27.956h0v0s0-.006,0-.008h0l0,.008s0,0,0,0h5.932s0-.008,0-.012H9.062ZM26.556-25.325h.6a2.828,2.828,0,0,0,2.669,1.805h0a3.437,3.437,0,0,0,2.668-1.588h.593A2.6,2.6,0,0,0,35.75-23.52h0c.6,0,.89-.265,1.189-.265h0a11.431,11.431,0,0,0,.261,1.317h0v10.518a2.829,2.829,0,0,1-2.98,2.631H22.133V-20.063h-7.4V-9.524H13.5a2.828,2.828,0,0,1-2.98-2.646h0V-22.73a4.639,4.639,0,0,0,.331-1.317h0a2.473,2.473,0,0,0,1.185.262h0a2.612,2.612,0,0,0,2.649-1.541h.6a2.631,2.631,0,0,0,2.668,1.541h0a2.648,2.648,0,0,0,2.672-1.541h.592a2.632,2.632,0,0,0,2.669,1.541h0a2.62,2.62,0,0,0,2.668-1.541m.325-2.643s0,.007,0,.012h5.909s0-.008,0-.012H26.881Zm-5.933,0s0,.007,0,.012h5.909s0-.008,0-.012H20.948Zm-5.929,0s0,.007,0,.012h5.906s0-.008,0-.012h-5.9Zm17.77.012c0,.039.011.075.013.115h0c0-.039.011-.075.012-.115h0Zm-5.932,0c0,.039.011.075.013.115h0c0-.039.011-.075.011-.115h0Zm-5.933,0c0,.039.011.075.013.114h0c0-.039.011-.075.011-.114h0Zm-5.93,0c0,.039.011.075.013.114h0c0-.039.011-.075.011-.114h0Zm11.216,7.564v6.579h7.409v-6.579Z" fill="none"/>
    </clipPath>
    <linearGradient id="linear-gradient" y1="0.32" x2="0.283" y2="0.32" gradientUnits="objectBoundingBox">
      <stop offset="0" stop-color="#f3b42d"/>
      <stop offset="0.1" stop-color="#f4b02e"/>
      <stop offset="0.2" stop-color="#f5ac2e"/>
      <stop offset="0.3" stop-color="#f6a82f"/>
      <stop offset="0.4" stop-color="#f6a330"/>
      <stop offset="0.5" stop-color="#f79e30"/>
      <stop offset="0.6" stop-color="#f89931"/>
      <stop offset="0.7" stop-color="#f99431"/>
      <stop offset="0.8" stop-color="#fa8f32"/>
      <stop offset="0.9" stop-color="#fa8a32"/>
      <stop offset="1" stop-color="#fb8533"/>
    </linearGradient>
  </defs>
  <g id="stores_logo" data-name="stores logo" transform="translate(0 47.802)" style="mix-blend-mode: normal;isolation: isolate">
    <g id="Gruppe_22" data-name="Gruppe 22" clip-path="url(#clip-path)">
      <g id="Gruppe_21" data-name="Gruppe 21" transform="translate(73.955 -13.046)">
        <path id="Pfad_15" data-name="Pfad 15" d="M0,0A5.076,5.076,0,0,1-3.044.764,5.48,5.48,0,0,1-6.489-.231,3.657,3.657,0,0,1-7.871-3.093h-6.646a7.5,7.5,0,0,0,1.455,4.427A9.824,9.824,0,0,0-9.047,4.56,13.88,13.88,0,0,0-3.19,5.736,13.289,13.289,0,0,0,4.766,3.517a6.847,6.847,0,0,0,3.08-5.809q0-5.022-5.555-7.059a30.436,30.436,0,0,0-4.415-1.176,11.349,11.349,0,0,1-3.723-1.237,2.16,2.16,0,0,1-1.1-1.88,2.528,2.528,0,0,1,.97-2.038,4.2,4.2,0,0,1,2.741-.8A4.106,4.106,0,0,1-.206-15.5a3.393,3.393,0,0,1,.97,2.486h7.01a7.414,7.414,0,0,0-3-6.112,12.587,12.587,0,0,0-7.992-2.353,11.691,11.691,0,0,0-7.58,2.341,7.21,7.21,0,0,0-2.9,5.834q0,5.991,9.363,7.956A14.475,14.475,0,0,1-.243-4.027,2.26,2.26,0,0,1,1.031-2,2.378,2.378,0,0,1,0,0M13.741-27.446v6.452H9.909v5.142h3.832V-1.71q.146,7.447,7.519,7.447a14.436,14.436,0,0,0,4.245-.631V-.206a11.176,11.176,0,0,1-2.061.17,2.8,2.8,0,0,1-2.135-.631,3.13,3.13,0,0,1-.558-2.086v-13.1h4.487v-5.142H20.751v-6.452ZM27.325-7.8q0,6.258,3.383,9.9a11.777,11.777,0,0,0,9.06,3.638,11.719,11.719,0,0,0,9.047-3.651q3.371-3.65,3.372-9.69L52.139-9.4a13.044,13.044,0,0,0-3.748-8.829,11.953,11.953,0,0,0-8.671-3.25,12.634,12.634,0,0,0-6.562,1.674,11.008,11.008,0,0,0-4.33,4.73,15.566,15.566,0,0,0-1.5,6.962Zm8.417-6.024a4.574,4.574,0,0,1,3.978-2,4.654,4.654,0,0,1,4.027,2.016,9.715,9.715,0,0,1,1.431,5.684q0,4.3-1.431,6.256A4.653,4.653,0,0,1,39.768.085,4.639,4.639,0,0,1,35.742-1.9a9.806,9.806,0,0,1-1.407-5.721q0-4.2,1.407-6.207m35.608-7.34a7.339,7.339,0,0,0-2.183-.316,6.5,6.5,0,0,0-5.845,3.614l-.194-3.129H56.5V5.251h7.01V-11.922q1.237-2.693,5.215-2.693a19,19,0,0,1,2.523.194ZM92.21,4.487a10.525,10.525,0,0,0,4.269-3.481L93.034-2.85A7.566,7.566,0,0,1,86.7.085a6.2,6.2,0,0,1-4.33-1.552,6.511,6.511,0,0,1-2.05-4.123H97.036V-8.454q0-6.233-3.093-9.629a10.892,10.892,0,0,0-8.477-3.4,12.153,12.153,0,0,0-6.392,1.686,11.217,11.217,0,0,0-4.33,4.8A15.85,15.85,0,0,0,73.217-7.92v.679A12.587,12.587,0,0,0,76.843,2.2a12.883,12.883,0,0,0,9.4,3.541A14.011,14.011,0,0,0,92.21,4.487M88.886-14.548a5.219,5.219,0,0,1,1.261,3.618v.561H80.4a7.319,7.319,0,0,1,1.661-4.044,4.379,4.379,0,0,1,3.384-1.413,4.52,4.52,0,0,1,3.444,1.279M114.2,0a5.074,5.074,0,0,1-3.044.764,5.48,5.48,0,0,1-3.444-.995,3.656,3.656,0,0,1-1.382-2.862H99.68a7.493,7.493,0,0,0,1.456,4.427A9.825,9.825,0,0,0,105.15,4.56a13.881,13.881,0,0,0,5.858,1.176,13.286,13.286,0,0,0,7.956-2.219,6.847,6.847,0,0,0,3.081-5.809q0-5.022-5.555-7.059a30.455,30.455,0,0,0-4.415-1.176,11.345,11.345,0,0,1-3.723-1.237,2.16,2.16,0,0,1-1.1-1.88,2.527,2.527,0,0,1,.971-2.038,4.2,4.2,0,0,1,2.741-.8,4.1,4.1,0,0,1,3.032.982,3.394,3.394,0,0,1,.971,2.486h7.01a7.415,7.415,0,0,0-3-6.112,12.586,12.586,0,0,0-7.992-2.353,11.693,11.693,0,0,0-7.58,2.341,7.211,7.211,0,0,0-2.9,5.834q0,5.991,9.363,7.956a14.479,14.479,0,0,1,4.087,1.322A2.26,2.26,0,0,1,115.229-2,2.377,2.377,0,0,1,114.2,0" fill="#0e2545"/>
      </g>
    </g>
    <g id="Gruppe_24" data-name="Gruppe 24" clip-path="url(#clip-path-2)">
      <g id="Gruppe_23" data-name="Gruppe 23" transform="translate(-3.931 -17.731) rotate(-12.5)">
        <path id="Pfad_17" data-name="Pfad 17" d="M10.346-28.507,201.7,13.915,191.354,60.583,0,18.161Z" fill="url(#linear-gradient)"/>
      </g>
    </g>
  </g>
</svg>
