<svg xmlns="http://www.w3.org/2000/svg" xmlns:xlink="http://www.w3.org/1999/xlink" width="341.944" height="309.458" viewBox="0 0 341.944 309.458">
  <defs>
    <clipPath id="clip-path">
      <path id="Pfad_30" data-name="Pfad 30" d="M80.3,16.461a19.335,19.335,0,0,0-6.308,1.534,23.051,23.051,0,0,0-5.657,3.454,22.657,22.657,0,0,0-4.427,4.883,18.425,18.425,0,0,0-2.6,5.837h0L4.681,266.267a20.882,20.882,0,0,0-.47,7.58A16.479,16.479,0,0,0,6.4,280.274a13.764,13.764,0,0,0,4.484,4.593,13.945,13.945,0,0,0,6.4,2.053h0l276.565,20.806a23.09,23.09,0,0,0,9.068-1.128,23.52,23.52,0,0,0,7.737-4.359,23.264,23.264,0,0,0,5.547-6.889,22.467,22.467,0,0,0,2.529-8.686h0L340.6,16.652a13.231,13.231,0,0,0-1.044-6.429,13.678,13.678,0,0,0-3.83-5.025,16.931,16.931,0,0,0-5.983-3.147,21.506,21.506,0,0,0-7.525-.81h0Zm35.076,50.473a13.755,13.755,0,0,1,2.07-2.69,11.117,11.117,0,0,1,2.333-1.8,10.531,10.531,0,0,1,2.478-1.027,11.206,11.206,0,0,1,2.5-.381h0l126.281-5.007a7.576,7.576,0,0,1,2.7.4,9.5,9.5,0,0,1,2.43,1.24,11.3,11.3,0,0,1,2.015,1.815,10.743,10.743,0,0,1,1.456,2.121h0l10.7,55.12-38.458.442a.173.173,0,0,1,0,.018l0,.017,0,.018c0,.006,0,.013,0,.02h0l38.488-.441-.013-.074.265,0a16.816,16.816,0,0,1-2.2,6.628,17.567,17.567,0,0,1-4.639,5.149,21.679,21.679,0,0,1-6.642,3.332,28.072,28.072,0,0,1-8.18,1.2h-.087a21.446,21.446,0,0,1-7.194-1.2,16.8,16.8,0,0,1-5.566-3.244,13.412,13.412,0,0,1-3.473-4.8,12.518,12.518,0,0,1-.93-5.869h0a17.065,17.065,0,0,1-2.437,6.211,17.93,17.93,0,0,1-4.592,4.816,21.447,21.447,0,0,1-6.352,3.113,26.769,26.769,0,0,1-7.7,1.12h-.084a20.135,20.135,0,0,1-6.921-1.171,15.679,15.679,0,0,1-5.3-3.187,12.759,12.759,0,0,1-3.248-4.715,12.373,12.373,0,0,1-.765-5.772h0a17.383,17.383,0,0,1-2.492,6.1,18.076,18.076,0,0,1-4.537,4.732,21.09,21.09,0,0,1-6.2,3.058,25.709,25.709,0,0,1-7.465,1.1h-.081a18.9,18.9,0,0,1-6.655-1.152,14.64,14.64,0,0,1-5.049-3.133,12.03,12.03,0,0,1-3.64-10.31h0a17.678,17.678,0,0,1-2.543,6,18.232,18.232,0,0,1-4.487,4.652,20.774,20.774,0,0,1-6.057,3.006,24.682,24.682,0,0,1-7.236,1.081h-.079a17.766,17.766,0,0,1-6.4-1.137,13.689,13.689,0,0,1-4.8-3.081,11.641,11.641,0,0,1-2.822-4.556,12.2,12.2,0,0,1-.464-5.577h0a17.948,17.948,0,0,1-2.59,5.9,18.4,18.4,0,0,1-4.441,4.573,20.5,20.5,0,0,1-5.92,2.955,23.683,23.683,0,0,1-7.011,1.062h0a16.8,16.8,0,0,1-6.351-1.152A12.826,12.826,0,0,1,92.3,129.3a11.134,11.134,0,0,1-2.59-4.7,12.313,12.313,0,0,1-.1-5.731H89.6l.007-.021,0-.012,0-.012,0-.012,0-.012h.018l-.025.048a.025.025,0,0,0,0,0s0,0,0,0,0,0,0,.005a.045.045,0,0,1,0,.006h0l33.733-.386c0-.007,0-.013,0-.019s0-.011,0-.017,0-.011,0-.016a.157.157,0,0,1,0-.017h0l-33.714.387Zm74.635,66.319,3.719-.015a11.925,11.925,0,0,0,1.791,4.319,13.311,13.311,0,0,0,3.322,3.4,16.185,16.185,0,0,0,4.568,2.261,19.673,19.673,0,0,0,5.522.889h0a18.655,18.655,0,0,0,5.454-.825,23.33,23.33,0,0,0,4.955-2.191,31.4,31.4,0,0,0,4.375-3.105,41.175,41.175,0,0,0,3.719-3.564h0l3.835-.013a9.194,9.194,0,0,0,1.867,4.244,12.015,12.015,0,0,0,3.675,3.044,18.837,18.837,0,0,0,4.956,1.836,26.022,26.022,0,0,0,5.7.618h0a13.69,13.69,0,0,0,2.651-.254,18.439,18.439,0,0,0,2.133-.563c.641-.205,1.221-.41,1.764-.564a5.693,5.693,0,0,1,1.546-.256h0q.027,1.033.087,2.064t.153,2.061q.093,1.03.22,2.057t.288,2.052h0l-8.272,68.5a17.039,17.039,0,0,1-2.5,6.885,20.508,20.508,0,0,1-5.128,5.516,23.329,23.329,0,0,1-7.011,3.566,23.74,23.74,0,0,1-8.121,1.059h0l-79.65-3.521L157.37,164.89l-44.566-.5L99.995,229.414l-7.436-.324a17.1,17.1,0,0,1-6.683-1.62,14.285,14.285,0,0,1-4.9-3.814,13.38,13.38,0,0,1-2.676-5.418,14.753,14.753,0,0,1-.034-6.453h0l13.293-63.237q.569-.919,1.072-1.857t.939-1.889q.436-.951.8-1.915t.667-1.935h0a10.712,10.712,0,0,0,1.448.688,11.777,11.777,0,0,0,1.577.485,12.93,12.93,0,0,0,1.682.276,14.09,14.09,0,0,0,1.764.06h0a23.628,23.628,0,0,0,5.112-.566,22.26,22.26,0,0,0,4.895-1.692,17.391,17.391,0,0,0,4.166-2.795,12.964,12.964,0,0,0,2.924-3.867h0l3.492-.014a8.007,8.007,0,0,0,1.441,3.864,10.033,10.033,0,0,0,3.125,2.8,15.7,15.7,0,0,0,4.344,1.7,22.027,22.027,0,0,0,5.087.577h0a24.983,24.983,0,0,0,5.323-.576,22.874,22.874,0,0,0,5.041-1.721,17.731,17.731,0,0,0,4.266-2.843,13.3,13.3,0,0,0,3-3.934h0l3.569-.015a8.184,8.184,0,0,0,1.575,3.931,10.675,10.675,0,0,0,3.3,2.848,16.859,16.859,0,0,0,4.543,1.734,23.363,23.363,0,0,0,5.277.587h0a26.36,26.36,0,0,0,5.511-.586,23.773,23.773,0,0,0,5.218-1.751,17.494,17.494,0,0,0,4.358-2.893,12.3,12.3,0,0,0,2.931-4m4.481-15.655a.18.18,0,0,1,0,.018l0,.017-.005.018c0,.006,0,.013,0,.02h0l37.24-.426a.178.178,0,0,0,0-.02c0-.006,0-.012,0-.018s0-.011,0-.017a.167.167,0,0,1,0-.018h0Zm-36.114.415c0,.006,0,.012,0,.018l-.005.017-.005.017c0,.006,0,.012,0,.019h0l35.967-.412a.125.125,0,0,0,0-.02c0-.006,0-.012,0-.017s0-.011,0-.017a.106.106,0,0,1,0-.018h0Zm-34.875.4a.123.123,0,0,1,0,.017l-.006.016-.006.017a.147.147,0,0,0-.005.019h0l34.736-.4a.18.18,0,0,0,0-.019c0-.006,0-.012,0-.017s0-.011,0-.017a.167.167,0,0,1,0-.017h0Zm108.211-1.17a1.585,1.585,0,0,0-.011.172c0,.057,0,.113,0,.169s0,.113,0,.17,0,.115-.007.174h0c.011-.059.025-.116.041-.173s.031-.113.048-.17.032-.113.046-.17.026-.115.035-.173h0Zm-37.388.428a1.5,1.5,0,0,0-.016.169c0,.056,0,.111,0,.167s0,.111,0,.167,0,.113-.009.171h0c.012-.058.027-.114.043-.17s.033-.112.049-.167.033-.111.047-.167.027-.113.036-.17h0Zm-36.11.414a1.5,1.5,0,0,0-.019.166c0,.055,0,.109-.005.163s0,.109,0,.163,0,.11-.01.166h0c.012-.057.026-.112.042-.167s.033-.109.05-.163.034-.108.049-.163.028-.11.039-.167h0Zm-34.874.4a1.6,1.6,0,0,0-.02.163c0,.054-.006.107-.008.161s0,.107-.006.161-.008.108-.015.163h0c.013-.056.029-.11.046-.164s.035-.107.052-.16.035-.106.05-.16.03-.108.04-.164h0Zm59.746,44.66-6.6,41.406,46.688,1.4,2,.06,5.662-42.382Z" transform="translate(0 0)" fill="none"/>
    </clipPath>
    <linearGradient id="linear-gradient" y1="0.5" x2="1" y2="0.5" gradientUnits="objectBoundingBox">
      <stop offset="0" stop-color="#f3b42d"/>
      <stop offset="0.1" stop-color="#f4b02e"/>
      <stop offset="0.2" stop-color="#f5ac2e"/>
      <stop offset="0.3" stop-color="#f6a82f"/>
      <stop offset="0.4" stop-color="#f6a330"/>
      <stop offset="0.5" stop-color="#f79e30"/>
      <stop offset="0.6" stop-color="#f89931"/>
      <stop offset="0.7" stop-color="#f99431"/>
      <stop offset="0.8" stop-color="#fa8f32"/>
      <stop offset="0.9" stop-color="#fa8a32"/>
      <stop offset="1" stop-color="#fb8533"/>
    </linearGradient>
  </defs>
  <g id="stores" style="mix-blend-mode: normal;isolation: isolate">
    <g id="Gruppe_40" data-name="Gruppe 40" transform="translate(0 0)" clip-path="url(#clip-path)">
      <g id="Gruppe_39" data-name="Gruppe 39" transform="translate(-3.248 -52.322)">
        <path id="Pfad_29" data-name="Pfad 29" d="M68.118,69.752,345.194,52.32,320.134,361.78,3.248,337.941Z" fill="url(#linear-gradient)"/>
      </g>
    </g>
  </g>
</svg>
