<svg xmlns="http://www.w3.org/2000/svg" width="18.585" height="15.449" viewBox="0 0 18.585 15.449">
  <path id="store" d="M18.219,3.579,16.261.453A.966.966,0,0,0,15.443,0H3.253a.966.966,0,0,0-.818.453L.477,3.579A2.692,2.692,0,0,0,2.251,7.694a3.136,3.136,0,0,0,.413.027,2.979,2.979,0,0,0,2.227-1,2.982,2.982,0,0,0,4.454,0,2.982,2.982,0,0,0,4.454,0,2.989,2.989,0,0,0,2.227,1,3.1,3.1,0,0,0,.413-.027,2.689,2.689,0,0,0,1.78-4.116ZM16.032,8.69a3.828,3.828,0,0,1-.89-.115v3.011H3.555V8.575a4,4,0,0,1-.89.115,4.071,4.071,0,0,1-.543-.036,3.8,3.8,0,0,1-.495-.109v5.938a.965.965,0,0,0,.966.966H16.11a.965.965,0,0,0,.966-.966V8.545a3.081,3.081,0,0,1-.495.109,4.2,4.2,0,0,1-.549.036Z" transform="translate(-0.056)" fill="#c02169"/>
</svg>
