<svg xmlns="http://www.w3.org/2000/svg" width="15.451" height="19.016" viewBox="0 0 15.451 19.016">
  <path id="utensils" d="M7.722.563a45.411,45.411,0,0,1,.6,4.784A3.916,3.916,0,0,1,5.761,9.232l.479,8.843a.894.894,0,0,1-.891.94H2.971a.894.894,0,0,1-.891-.94l.479-8.843A3.915,3.915,0,0,1,0,5.347,45.276,45.276,0,0,1,.6.563C.717-.191,2.28-.2,2.377.6V5.848c.048.126.561.119.594,0,.052-.94.293-5.17.3-5.267.123-.773,1.66-.773,1.779,0,.007.1.245,4.327.3,5.267.033.119.55.126.594,0V.6C6.035-.2,7.6-.191,7.722.563Zm4.427,10.611-.557,6.875a.891.891,0,0,0,.888.966h2.08a.889.889,0,0,0,.891-.891V.89A.892.892,0,0,0,14.559,0c-3.064,0-8.223,6.63-2.41,11.176Z" transform="translate(0 0.001)" fill="#c02169"/>
</svg>
