<svg xmlns="http://www.w3.org/2000/svg" width="15" height="18.462" viewBox="0 0 15 18.462">
  <path id="utensils" d="M7.5.547a44.087,44.087,0,0,1,.581,4.644A3.8,3.8,0,0,1,5.593,8.963l.465,8.585a.868.868,0,0,1-.865.912H2.885a.868.868,0,0,1-.865-.912l.465-8.585A3.8,3.8,0,0,1,0,5.191,43.956,43.956,0,0,1,.581.547C.7-.185,2.214-.2,2.308.586V5.678c.047.123.544.115.577,0,.05-.912.285-5.019.288-5.113.119-.75,1.612-.75,1.727,0,.007.1.238,4.2.288,5.113.032.115.534.123.577,0V.586C5.859-.192,7.381-.185,7.5.547Zm4.3,10.3-.541,6.674a.865.865,0,0,0,.862.937h2.019A.863.863,0,0,0,15,17.595V.864A.866.866,0,0,0,14.135,0c-2.975,0-7.983,6.436-2.34,10.85Z" transform="translate(0 0.001)" fill="#e98623"/>
</svg>
