<svg xmlns="http://www.w3.org/2000/svg" xmlns:xlink="http://www.w3.org/1999/xlink" width="475.414" height="484.079" viewBox="0 0 475.414 484.079">
  <defs>
    <clipPath id="clip-path">
      <path id="Pfad_28" data-name="Pfad 28" d="M91.4,26.755a25.6,25.6,0,0,0-8.947,2.358,30.458,30.458,0,0,0-7.829,5.268A31.131,31.131,0,0,0,68.7,41.811a27.167,27.167,0,0,0-3.218,8.87h0L5.009,406.9A33.854,33.854,0,0,0,5,418.495a28.373,28.373,0,0,0,3.708,9.914,23.053,23.053,0,0,0,6.846,7.179,20.63,20.63,0,0,0,9.383,3.348h0L434.692,480.52a32.566,32.566,0,0,0,13.6-1.453,31.414,31.414,0,0,0,11.266-6.6,32.1,32.1,0,0,0,7.692-10.669,34.267,34.267,0,0,0,2.93-13.607h0l4.934-422.311a21.872,21.872,0,0,0-2.242-9.985,23.19,23.19,0,0,0-6.294-7.784,27.259,27.259,0,0,0-9.332-4.847,32.023,32.023,0,0,0-11.4-1.207h0ZM233.777,276.688a263.231,263.231,0,0,0,27.763-.585,236.458,236.458,0,0,0,26.813-3.537,217.924,217.924,0,0,0,25.7-6.547,207.49,207.49,0,0,0,24.438-9.588h0A193.438,193.438,0,0,0,360.947,244.1a171.215,171.215,0,0,0,19.766-14.744,158.894,158.894,0,0,0,16.954-17.083,155.971,155.971,0,0,0,14.047-19.323h0L443.6,208.806a168.126,168.126,0,0,1-8.074,19.207,185.218,185.218,0,0,1-10.7,18.761A210.306,210.306,0,0,1,411.5,265.022q-7.316,8.989-15.914,17.67h0q-8.6,8.677-17.829,16.327A235.573,235.573,0,0,1,358.7,313.259a229.832,229.832,0,0,1-41.477,22.063h0a228.751,228.751,0,0,1-21.789,7.635,211.3,211.3,0,0,1-21.76,5.174,200.449,200.449,0,0,1-21.67,2.741,195.9,195.9,0,0,1-21.52.348h0L221.8,350.7a189.954,189.954,0,0,1-21.215-2.449,178.781,178.781,0,0,1-20.193-4.716,174.449,174.449,0,0,1-19.161-6.911,176.627,176.627,0,0,1-18.122-9.027h0a170.536,170.536,0,0,1-16.741-10.911,166.542,166.542,0,0,1-15.059-12.566,169.312,169.312,0,0,1-13.419-14.16A178.74,178.74,0,0,1,86.071,274.27h0a175,175,0,0,1-9.837-16.5,155.257,155.257,0,0,1-7.508-16.657,143.786,143.786,0,0,1-5.261-16.837,139.74,139.74,0,0,1-3.085-17.042h0L87.19,193.456a105.659,105.659,0,0,0,7.4,16.734,102.979,102.979,0,0,0,10.248,15.2,110.473,110.473,0,0,0,13.2,13.627,129.216,129.216,0,0,0,16.256,12.016h0a147.23,147.23,0,0,0,18.935,10.021,165.358,165.358,0,0,0,21.2,7.626,194.975,194.975,0,0,0,23.514,5.14,238.016,238.016,0,0,0,25.884,2.565h0Z" transform="translate(0 0)" fill="none"/>
    </clipPath>
    <linearGradient id="linear-gradient" y1="0.5" x2="1" y2="0.5" gradientUnits="objectBoundingBox">
      <stop offset="0" stop-color="#fd317a"/>
      <stop offset="0.1" stop-color="#f8317a"/>
      <stop offset="0.2" stop-color="#f33179"/>
      <stop offset="0.3" stop-color="#ed3179"/>
      <stop offset="0.4" stop-color="#e83178"/>
      <stop offset="0.5" stop-color="#e23177"/>
      <stop offset="0.6" stop-color="#dc3177"/>
      <stop offset="0.7" stop-color="#d73176"/>
      <stop offset="0.8" stop-color="#d13076"/>
      <stop offset="0.9" stop-color="#cb3075"/>
      <stop offset="1" stop-color="#c63075"/>
    </linearGradient>
  </defs>
  <g id="zmyle" style="mix-blend-mode: normal;isolation: isolate">
    <g id="Gruppe_37" data-name="Gruppe 37" transform="translate(0 0)" clip-path="url(#clip-path)">
      <g id="Gruppe_36" data-name="Gruppe 36" transform="translate(-5.253 -80.986)">
        <path id="Pfad_27" data-name="Pfad 27" d="M74.531,109.283l406.134-28.3-5.656,484.077L5.253,517.39Z" fill="url(#linear-gradient)"/>
      </g>
    </g>
  </g>
</svg>
